<?xml version="1.0" encoding="utf-8"?>
<!-- Generator: Adobe Illustrator 24.2.1, SVG Export Plug-In . SVG Version: 6.00 Build 0)  -->
<svg version="1.1" id="Layer_1" xmlns="http://www.w3.org/2000/svg" xmlns:xlink="http://www.w3.org/1999/xlink" x="0px" y="0px"
	 viewBox="0 0 115.8 115.8" style="enable-background:new 0 0 115.8 115.8;" xml:space="preserve">
<style type="text/css">
	.st0{fill:#FFFFFF;}
</style>
<path class="st0" d="M57.9,115.8C25.9,115.8,0,89.9,0,57.9S25.9,0,57.9,0s57.9,25.9,57.9,57.9C115.7,89.8,89.8,115.7,57.9,115.8z
	 M57.9,5.8C29.1,5.8,5.8,29.1,5.8,57.9S29.1,110,57.9,110S110,86.7,110,57.9l0,0C110,29.1,86.7,5.8,57.9,5.8z M77,91.9H38.8
	c-8.2,0-14.9-6.7-14.9-14.9l0,0V38.8c0-8.2,6.7-14.9,14.9-14.9l0,0H77c8.2,0,14.9,6.7,14.9,14.9l0,0V77C91.9,85.2,85.2,91.9,77,91.9
	L77,91.9z M29.9,39v37.8c0,5,4.1,9.1,9.1,9.1l0,0h37.8c5,0,9.1-4.1,9.1-9.1l0,0V39c0-5-4.1-9.1-9.1-9.1l0,0H39
	C34,29.9,29.9,34,29.9,39L29.9,39z M57.9,74.4c-9.1,0-16.5-7.4-16.5-16.5s7.4-16.5,16.5-16.5s16.5,7.4,16.5,16.5S67,74.4,57.9,74.4z
	 M57.9,46.4c-6.3,0-11.5,5.1-11.5,11.5c0,6.3,5.1,11.5,11.5,11.5c6.3,0,11.5-5.1,11.5-11.5l0,0C69.4,51.6,64.2,46.4,57.9,46.4z
	 M74.9,33.9c-2.2,0-4,1.8-4,4s1.8,4,4,4s4-1.8,4-4S77.1,33.9,74.9,33.9z"/>
</svg>
