<?xml version="1.0" encoding="utf-8"?>
<!-- Generator: Adobe Illustrator 24.2.1, SVG Export Plug-In . SVG Version: 6.00 Build 0)  -->
<svg version="1.1" id="Layer_1" xmlns="http://www.w3.org/2000/svg" xmlns:xlink="http://www.w3.org/1999/xlink" x="0px" y="0px"
	 viewBox="0 0 115.8 115.8" style="enable-background:new 0 0 115.8 115.8;" xml:space="preserve">
<style type="text/css">
	.st0{fill:#FFFFFF;}
</style>
<path id="Layer_2_1_" class="st0" d="M57.9,115.8C25.9,115.8,0,89.9,0,57.9S25.9,0,57.9,0s57.9,25.9,57.9,57.9
	C115.7,89.8,89.8,115.7,57.9,115.8z M57.9,5.8C29.1,5.8,5.8,29.1,5.8,57.9S29.1,110,57.9,110S110,86.7,110,57.9l0,0
	C110,29.1,86.7,5.8,57.9,5.8z M78.6,22.9h-42v42h42V22.9z M70.3,80.9l9.9-12H35.5l9.9,12H70.3z M48,83.9l9.9,12l10-12H48z
	 M49.7,34.4h5l6.5,9.5v-9.5h5v17.2h-5l-6.4-9.4v9.4h-5L49.7,34.4z"/>
</svg>
