<?xml version="1.0" encoding="utf-8"?>
<!-- Generator: Adobe Illustrator 24.2.1, SVG Export Plug-In . SVG Version: 6.00 Build 0)  -->
<svg version="1.1" id="Layer_1" xmlns="http://www.w3.org/2000/svg" xmlns:xlink="http://www.w3.org/1999/xlink" x="0px" y="0px"
	 viewBox="0 0 88 116" style="enable-background:new 0 0 88 116;" xml:space="preserve">
<style type="text/css">
	.st0{fill:#FFFFFF;}
</style>
<path id="Layer_2_1_" class="st0" d="M64.6,24c-0.3-8.2-2.3-14.4-6.2-18.5C54.9,1.9,50.3,0,44.5,0c-6.2,0-11.2,1.9-14.8,5.8
	c-3.9,4.1-6,10.2-6.2,18.2H0v72.5C0,107.3,8.7,116,19.5,116h49.1c10.7,0,19.4-8.7,19.5-19.5V24H64.6z M36.2,12c1.9-2,4.6-3,8.3-3
	c3.2,0,5.6,0.9,7.3,2.7c2.3,2.4,3.5,6.6,3.7,12.3H32.4C32.7,18.4,33.9,14.4,36.2,12z M28,32c2.8,0,5,2.2,5,5s-2.2,5-5,5s-5-2.2-5-5
	S25.2,32,28,32z M60,32c2.8,0,5,2.2,5,5s-2.2,5-5,5s-5-2.2-5-5S57.2,32,60,32z"/>
</svg>
