<?xml version="1.0" encoding="utf-8"?>
<!-- Generator: Adobe Illustrator 24.2.1, SVG Export Plug-In . SVG Version: 6.00 Build 0)  -->
<svg version="1.1" id="Layer_1" xmlns="http://www.w3.org/2000/svg" xmlns:xlink="http://www.w3.org/1999/xlink" x="0px" y="0px"
	 viewBox="0 0 115.8 115.8" style="enable-background:new 0 0 115.8 115.8;" xml:space="preserve">
<style type="text/css">
	.st0{fill:#FFFFFF;}
</style>
<path id="Layer_2_1_" class="st0" d="M57.9,115.8C25.9,115.8,0,89.9,0,57.9S25.9,0,57.9,0s57.9,25.9,57.9,57.9
	C115.7,89.8,89.8,115.7,57.9,115.8z M57.9,5.8C29.1,5.8,5.8,29.1,5.8,57.9S29.1,110,57.9,110S110,86.7,110,57.9l0,0
	C110,29.1,86.7,5.8,57.9,5.8z M42.9,44.9h7v-3.5c0-3.9,0.4-6.9,1.2-8.8c0.9-2,2.5-3.7,4.5-4.7c2.5-1.3,5.4-2,8.3-1.9
	c3.4,0,6.8,0.5,10,1.6l-1.6,8.6c-1.8-0.5-3.7-0.7-5.5-0.7c-1.4-0.1-2.7,0.4-3.7,1.3c-0.8,0.8-1.1,2.4-1.1,4.8v3.3h9v10h-9v37H50v-37
	h-7L42.9,44.9z"/>
</svg>
