<?xml version="1.0" encoding="utf-8"?>
<!-- Generator: Adobe Illustrator 24.2.1, SVG Export Plug-In . SVG Version: 6.00 Build 0)  -->
<svg version="1.1" id="Layer_1" xmlns="http://www.w3.org/2000/svg" xmlns:xlink="http://www.w3.org/1999/xlink" x="0px" y="0px"
	 viewBox="0 0 115.8 115.8" style="enable-background:new 0 0 115.8 115.8;" xml:space="preserve">
<style type="text/css">
	.st0{fill:#FFFFFF;}
</style>
<path id="Layer_2_1_" class="st0" d="M57.9,115.8C25.9,115.8,0,89.9,0,57.9S25.9,0,57.9,0s57.9,25.9,57.9,57.9
	C115.7,89.8,89.8,115.7,57.9,115.8z M57.9,5.8C29.1,5.8,5.8,29.1,5.8,57.9S29.1,110,57.9,110S110,86.7,110,57.9l0,0
	C110,29.1,86.7,5.8,57.9,5.8z M83.4,83.3h-51c-8.2,0-14.9-6.7-14.9-14.9v-21c0-8.2,6.7-14.9,14.9-14.9h51c8.2,0,14.9,6.7,14.9,14.9
	v21C98.3,76.6,91.6,83.3,83.4,83.3z M32.4,38.3c-5,0-9.1,4.1-9.1,9.1v21c0,5,4.1,9.1,9.1,9.1h51c5,0,9.1-4.1,9.1-9.1l0,0v-21
	c0-5-4.1-9.1-9.1-9.1C83.4,38.3,32.4,38.3,32.4,38.3z M57.9,53.7l-7.2-4.2v16.7l7.2-4.2l7.3-4.2L57.9,53.7z"/>
</svg>
