<svg xmlns="http://www.w3.org/2000/svg" viewBox="0 0 88.1 116"><g id="Layer_2" data-name="Layer 2"><g id="Layer_1-2" data-name="Layer 1"><path id="Layer_2-2" data-name="Layer 2" d="M64.6,24c-.3-8.2-2.3-14.4-6.2-18.5C54.9,1.9,50.3,0,44.5,0,38.3,0,33.3,1.9,29.7,5.8,25.8,9.9,23.7,16,23.5,24H0V96.5A19.46,19.46,0,0,0,19.5,116H68.6A19.59,19.59,0,0,0,88.1,96.5V24ZM36.2,12c1.9-2,4.6-3,8.3-3,3.2,0,5.6.9,7.3,2.7,2.3,2.4,3.5,6.6,3.7,12.3H32.4C32.7,18.4,33.9,14.4,36.2,12ZM28,32a5,5,0,1,1-5,5A5,5,0,0,1,28,32Zm32,0a5,5,0,1,1-5,5A5,5,0,0,1,60,32Z"/></g></g></svg>