<?xml version="1.0" encoding="utf-8"?>
<!-- Generator: Adobe Illustrator 24.2.1, SVG Export Plug-In . SVG Version: 6.00 Build 0)  -->
<svg version="1.1" id="Layer_1" xmlns="http://www.w3.org/2000/svg" xmlns:xlink="http://www.w3.org/1999/xlink" x="0px" y="0px"
	 viewBox="0 0 107.5 115.5" style="enable-background:new 0 0 107.5 115.5;" xml:space="preserve">
<style type="text/css">
	.st0{fill:#FFFFFF;}
</style>
<path id="Layer_2_1_" class="st0" d="M106.4,107.4L81.9,76.6C98.5,57,96.1,27.6,76.5,11s-49-14.2-65.6,5.4s-14.2,49,5.4,65.6
	c16.7,14.1,41,14.7,58.4,1.5l23.9,30.1c1.7,2.2,4.9,2.5,7,0.8S108.1,109.6,106.4,107.4L106.4,107.4z M10,46.5
	C10,26.3,26.3,10,46.5,10S83,26.3,83,46.5S66.7,83,46.5,83C26.4,83,10,66.6,10,46.5z"/>
</svg>
