<?xml version="1.0" encoding="utf-8"?>
<!-- Generator: Adobe Illustrator 24.2.1, SVG Export Plug-In . SVG Version: 6.00 Build 0)  -->
<svg version="1.1" id="Layer_1" xmlns="http://www.w3.org/2000/svg" xmlns:xlink="http://www.w3.org/1999/xlink" x="0px" y="0px"
	 viewBox="0 0 115.8 115.8" style="enable-background:new 0 0 115.8 115.8;" xml:space="preserve">
<style type="text/css">
	.st0{fill:#FFFFFF;}
</style>
<path id="Layer_2_1_" class="st0" d="M57.9,115.8C25.9,115.8,0,89.9,0,57.9S25.9,0,57.9,0s57.9,25.9,57.9,57.9
	C115.7,89.8,89.8,115.7,57.9,115.8z M57.9,5.8C29.1,5.8,5.8,29.1,5.8,57.9S29.1,110,57.9,110S110,86.7,110,57.9l0,0
	C110,29.1,86.7,5.8,57.9,5.8z M57.1,47.2c0,0-15.6,0.8-28.7-14.8c0,0-5.7,9.8,2.5,18c-1.7,0.5-3.5,0.2-4.9-0.8
	c0,0-0.8,9.8,10.6,13.1c0,0,1.2,1.2-6.1,1.2c0,0,3.3,7.4,13.1,9c0,0-5.7,6.6-19.7,6.6c0,0,13.1,7.4,26.2,5.7c0,0,19.7-1.6,31.1-22.9
	c0,0,4.1-9.8,4.1-18.8l6.6-6.5l-7.4,1.6l5.7-6.5l-9,2.5c0,0-5.8-7.4-17.3-2.5C55.6,35.6,57.1,47.2,57.1,47.2z"/>
</svg>
